<svg width="1382" height="874" viewBox="0 0 1382 874" version="1.1" xmlns="http://www.w3.org/2000/svg" xmlns:xlink="http://www.w3.org/1999/xlink">
<g id="Canvas" fill="none">
<g id="Frame" clip-path="url(#clip0)">
<g id="Group">
<g id="Group_2">
<g id="Group_3">
<g id="Ellipse" filter="url(#filter0_d)">
<circle cx="24" cy="24" r="24" transform="translate(270 120) scale(2)" fill="#DD0031"/>
</g>
<g id="Div">
<path d="M 0.990234 11L 0.990234 2.46875L 3.39844 2.46875C 4.14062 2.46875 4.79688 2.63281 5.36719 2.96094C 5.9375 3.28906 6.37695 3.75586 6.68555 4.36133C 6.99805 4.9668 7.15625 5.66211 7.16016 6.44727L 7.16016 6.99219C 7.16016 7.79688 7.00391 8.50195 6.69141 9.10742C 6.38281 9.71289 5.93945 10.1777 5.36133 10.502C 4.78711 10.8262 4.11719 10.9922 3.35156 11L 0.990234 11ZM 2.11523 3.39453L 2.11523 10.0801L 3.29883 10.0801C 4.16602 10.0801 4.83984 9.81055 5.32031 9.27148C 5.80469 8.73242 6.04688 7.96484 6.04688 6.96875L 6.04688 6.4707C 6.04688 5.50195 5.81836 4.75 5.36133 4.21484C 4.9082 3.67578 4.26367 3.40234 3.42773 3.39453L 2.11523 3.39453ZM 9.87305 11L 8.78906 11L 8.78906 4.66016L 9.87305 4.66016L 9.87305 11ZM 8.70117 2.97852C 8.70117 2.80273 8.75391 2.6543 8.85938 2.5332C 8.96875 2.41211 9.12891 2.35156 9.33984 2.35156C 9.55078 2.35156 9.71094 2.41211 9.82031 2.5332C 9.92969 2.6543 9.98438 2.80273 9.98438 2.97852C 9.98438 3.1543 9.92969 3.30078 9.82031 3.41797C 9.71094 3.53516 9.55078 3.59375 9.33984 3.59375C 9.12891 3.59375 8.96875 3.53516 8.85938 3.41797C 8.75391 3.30078 8.70117 3.1543 8.70117 2.97852ZM 13.7051 9.5293L 15.2754 4.66016L 16.3828 4.66016L 14.1094 11L 13.2832 11L 10.9863 4.66016L 12.0938 4.66016L 13.7051 9.5293Z" transform="translate(302 156) scale(2)" fill="white"/>
</g>
<g id="Arrow 2">
<path d="M 44.9112 0.707107C 45.3017 0.316582 45.3017 -0.316582 44.9112 -0.707107L 38.5472 -7.07107C 38.1567 -7.46159 37.5235 -7.46159 37.133 -7.07107C 36.7425 -6.68054 36.7425 -6.04738 37.133 -5.65685L 42.7899 0L 37.133 5.65685C 36.7425 6.04738 36.7425 6.68054 37.133 7.07107C 37.5235 7.46159 38.1567 7.46159 38.5472 7.07107L 44.9112 0.707107ZM 0 1L 44.2041 1L 44.2041 -1L 0 -1L 0 1Z" transform="matrix(1.22161 1.58356 -1.58356 1.22161 348 204)" fill="black"/>
</g>
<g id="Arrow 2.2">
<path d="M 44.9112 0.707107C 45.3017 0.316582 45.3017 -0.316582 44.9112 -0.707107L 38.5472 -7.07107C 38.1567 -7.46159 37.5235 -7.46159 37.133 -7.07107C 36.7425 -6.68054 36.7425 -6.04738 37.133 -5.65685L 42.7899 0L 37.133 5.65685C 36.7425 6.04738 36.7425 6.68054 37.133 7.07107C 37.5235 7.46159 38.1567 7.46159 38.5472 7.07107L 44.9112 0.707107ZM 0 1L 44.2041 1L 44.2041 -1L 0 -1L 0 1Z" transform="matrix(-1.41421 1.41421 -1.41421 -1.41421 286.514 204)" fill="black"/>
</g>
</g>
<g id="Group_4">
<g id="Ellipse_2" filter="url(#filter1_d)">
<circle cx="24" cy="24" r="24" transform="translate(148 258) scale(2)" fill="#DD0031"/>
</g>
<g id="Div_2">
<path d="M 0.990234 11L 0.990234 2.46875L 3.39844 2.46875C 4.14062 2.46875 4.79688 2.63281 5.36719 2.96094C 5.9375 3.28906 6.37695 3.75586 6.68555 4.36133C 6.99805 4.9668 7.15625 5.66211 7.16016 6.44727L 7.16016 6.99219C 7.16016 7.79688 7.00391 8.50195 6.69141 9.10742C 6.38281 9.71289 5.93945 10.1777 5.36133 10.502C 4.78711 10.8262 4.11719 10.9922 3.35156 11L 0.990234 11ZM 2.11523 3.39453L 2.11523 10.0801L 3.29883 10.0801C 4.16602 10.0801 4.83984 9.81055 5.32031 9.27148C 5.80469 8.73242 6.04688 7.96484 6.04688 6.96875L 6.04688 6.4707C 6.04688 5.50195 5.81836 4.75 5.36133 4.21484C 4.9082 3.67578 4.26367 3.40234 3.42773 3.39453L 2.11523 3.39453ZM 9.87305 11L 8.78906 11L 8.78906 4.66016L 9.87305 4.66016L 9.87305 11ZM 8.70117 2.97852C 8.70117 2.80273 8.75391 2.6543 8.85938 2.5332C 8.96875 2.41211 9.12891 2.35156 9.33984 2.35156C 9.55078 2.35156 9.71094 2.41211 9.82031 2.5332C 9.92969 2.6543 9.98438 2.80273 9.98438 2.97852C 9.98438 3.1543 9.92969 3.30078 9.82031 3.41797C 9.71094 3.53516 9.55078 3.59375 9.33984 3.59375C 9.12891 3.59375 8.96875 3.53516 8.85938 3.41797C 8.75391 3.30078 8.70117 3.1543 8.70117 2.97852ZM 13.7051 9.5293L 15.2754 4.66016L 16.3828 4.66016L 14.1094 11L 13.2832 11L 10.9863 4.66016L 12.0938 4.66016L 13.7051 9.5293Z" transform="translate(180 294) scale(2)" fill="white"/>
</g>
<g id="Arrow 2_2">
<path d="M 44.9112 0.707107C 45.3017 0.316582 45.3017 -0.316582 44.9112 -0.707107L 38.5472 -7.07107C 38.1567 -7.46159 37.5235 -7.46159 37.133 -7.07107C 36.7425 -6.68054 36.7425 -6.04738 37.133 -5.65685L 42.7899 0L 37.133 5.65685C 36.7425 6.04738 36.7425 6.68054 37.133 7.07107C 37.5235 7.46159 38.1567 7.46159 38.5472 7.07107L 44.9112 0.707107ZM 0 1L 44.2041 1L 44.2041 -1L 0 -1L 0 1Z" transform="matrix(1.22161 1.58356 -1.58356 1.22161 226 342)" fill="black"/>
</g>
<g id="Arrow 2.2_2">
<path d="M 44.9112 0.707107C 45.3017 0.316582 45.3017 -0.316582 44.9112 -0.707107L 38.5472 -7.07107C 38.1567 -7.46159 37.5235 -7.46159 37.133 -7.07107C 36.7425 -6.68054 36.7425 -6.04738 37.133 -5.65685L 42.7899 0L 37.133 5.65685C 36.7425 6.04738 36.7425 6.68054 37.133 7.07107C 37.5235 7.46159 38.1567 7.46159 38.5472 7.07107L 44.9112 0.707107ZM 0 1L 44.2041 1L 44.2041 -1L 0 -1L 0 1Z" transform="matrix(-1.41421 1.41421 -1.41421 -1.41421 164.514 342)" fill="black"/>
</g>
</g>
<g id="Group_5">
<g id="Ellipse_3" filter="url(#filter2_d)">
<circle cx="24" cy="24" r="24" transform="translate(476 420) scale(2)" fill="#DD0031"/>
</g>
<g id="Div_3">
<path d="M 0.990234 11L 0.990234 2.46875L 3.39844 2.46875C 4.14062 2.46875 4.79688 2.63281 5.36719 2.96094C 5.9375 3.28906 6.37695 3.75586 6.68555 4.36133C 6.99805 4.9668 7.15625 5.66211 7.16016 6.44727L 7.16016 6.99219C 7.16016 7.79688 7.00391 8.50195 6.69141 9.10742C 6.38281 9.71289 5.93945 10.1777 5.36133 10.502C 4.78711 10.8262 4.11719 10.9922 3.35156 11L 0.990234 11ZM 2.11523 3.39453L 2.11523 10.0801L 3.29883 10.0801C 4.16602 10.0801 4.83984 9.81055 5.32031 9.27148C 5.80469 8.73242 6.04688 7.96484 6.04688 6.96875L 6.04688 6.4707C 6.04688 5.50195 5.81836 4.75 5.36133 4.21484C 4.9082 3.67578 4.26367 3.40234 3.42773 3.39453L 2.11523 3.39453ZM 9.87305 11L 8.78906 11L 8.78906 4.66016L 9.87305 4.66016L 9.87305 11ZM 8.70117 2.97852C 8.70117 2.80273 8.75391 2.6543 8.85938 2.5332C 8.96875 2.41211 9.12891 2.35156 9.33984 2.35156C 9.55078 2.35156 9.71094 2.41211 9.82031 2.5332C 9.92969 2.6543 9.98438 2.80273 9.98438 2.97852C 9.98438 3.1543 9.92969 3.30078 9.82031 3.41797C 9.71094 3.53516 9.55078 3.59375 9.33984 3.59375C 9.12891 3.59375 8.96875 3.53516 8.85938 3.41797C 8.75391 3.30078 8.70117 3.1543 8.70117 2.97852ZM 13.7051 9.5293L 15.2754 4.66016L 16.3828 4.66016L 14.1094 11L 13.2832 11L 10.9863 4.66016L 12.0938 4.66016L 13.7051 9.5293Z" transform="translate(508 456) scale(2)" fill="white"/>
</g>
<g id="Arrow 2_3">
<path d="M 44.9112 0.707107C 45.3017 0.316582 45.3017 -0.316582 44.9112 -0.707107L 38.5472 -7.07107C 38.1567 -7.46159 37.5235 -7.46159 37.133 -7.07107C 36.7425 -6.68054 36.7425 -6.04738 37.133 -5.65685L 42.7899 0L 37.133 5.65685C 36.7425 6.04738 36.7425 6.68054 37.133 7.07107C 37.5235 7.46159 38.1567 7.46159 38.5472 7.07107L 44.9112 0.707107ZM 0 1L 44.2041 1L 44.2041 -1L 0 -1L 0 1Z" transform="matrix(1.22161 1.58356 -1.58356 1.22161 554 504)" fill="black"/>
</g>
<g id="Arrow 2.2_3">
<path d="M 44.9112 0.707107C 45.3017 0.316582 45.3017 -0.316582 44.9112 -0.707107L 38.5472 -7.07107C 38.1567 -7.46159 37.5235 -7.46159 37.133 -7.07107C 36.7425 -6.68054 36.7425 -6.04738 37.133 -5.65685L 42.7899 0L 37.133 5.65685C 36.7425 6.04738 36.7425 6.68054 37.133 7.07107C 37.5235 7.46159 38.1567 7.46159 38.5472 7.07107L 44.9112 0.707107ZM 0 1L 44.2041 1L 44.2041 -1L 0 -1L 0 1Z" transform="matrix(-1.41421 1.41421 -1.41421 -1.41421 492.514 504)" fill="black"/>
</g>
</g>
<g id="Group_6">
<g id="Ellipse_4" filter="url(#filter3_d)">
<circle cx="24" cy="24" r="24" transform="translate(588 566) scale(2)" fill="#DD0031"/>
</g>
<g id="p">
<path d="M 6.17578 7.90039C 6.17578 8.86523 5.95508 9.64258 5.51367 10.2324C 5.07227 10.8223 4.47461 11.1172 3.7207 11.1172C 2.95117 11.1172 2.3457 10.873 1.9043 10.3848L 1.9043 13.4375L 0.820312 13.4375L 0.820312 4.66016L 1.81055 4.66016L 1.86328 5.36328C 2.30469 4.81641 2.91797 4.54297 3.70312 4.54297C 4.46484 4.54297 5.06641 4.83008 5.50781 5.4043C 5.95312 5.97852 6.17578 6.77734 6.17578 7.80078L 6.17578 7.90039ZM 5.0918 7.77734C 5.0918 7.0625 4.93945 6.49805 4.63477 6.08398C 4.33008 5.66992 3.91211 5.46289 3.38086 5.46289C 2.72461 5.46289 2.23242 5.75391 1.9043 6.33594L 1.9043 9.36523C 2.22852 9.94336 2.72461 10.2324 3.39258 10.2324C 3.91211 10.2324 4.32422 10.0273 4.62891 9.61719C 4.9375 9.20312 5.0918 8.58984 5.0918 7.77734Z" transform="translate(620 602) scale(2)" fill="white"/>
</g>
</g>
<g id="Group_7">
<g id="Ellipse_5" filter="url(#filter4_d)">
<circle cx="24" cy="24" r="24" transform="translate(372 566) scale(2)" fill="#DD0031"/>
</g>
<g id="P">
<path d="M 2.11523 7.66016L 2.11523 11L 0.990234 11L 0.990234 2.46875L 4.13672 2.46875C 5.07031 2.46875 5.80078 2.70703 6.32812 3.18359C 6.85938 3.66016 7.125 4.29102 7.125 5.07617C 7.125 5.9043 6.86523 6.54297 6.3457 6.99219C 5.83008 7.4375 5.08984 7.66016 4.125 7.66016L 2.11523 7.66016ZM 2.11523 6.74023L 4.13672 6.74023C 4.73828 6.74023 5.19922 6.59961 5.51953 6.31836C 5.83984 6.0332 6 5.62305 6 5.08789C 6 4.58008 5.83984 4.17383 5.51953 3.86914C 5.19922 3.56445 4.75977 3.40625 4.20117 3.39453L 2.11523 3.39453L 2.11523 6.74023Z" transform="translate(404 602) scale(2)" fill="white"/>
</g>
</g>
<g id="Group_8">
<g id="Ellipse_6" filter="url(#filter5_d)">
<circle cx="24" cy="24" r="24" transform="translate(382 266) scale(2)" fill="#DD0031"/>
</g>
<g id="Div_4">
<path d="M 0.990234 11L 0.990234 2.46875L 3.39844 2.46875C 4.14062 2.46875 4.79688 2.63281 5.36719 2.96094C 5.9375 3.28906 6.37695 3.75586 6.68555 4.36133C 6.99805 4.9668 7.15625 5.66211 7.16016 6.44727L 7.16016 6.99219C 7.16016 7.79688 7.00391 8.50195 6.69141 9.10742C 6.38281 9.71289 5.93945 10.1777 5.36133 10.502C 4.78711 10.8262 4.11719 10.9922 3.35156 11L 0.990234 11ZM 2.11523 3.39453L 2.11523 10.0801L 3.29883 10.0801C 4.16602 10.0801 4.83984 9.81055 5.32031 9.27148C 5.80469 8.73242 6.04688 7.96484 6.04688 6.96875L 6.04688 6.4707C 6.04688 5.50195 5.81836 4.75 5.36133 4.21484C 4.9082 3.67578 4.26367 3.40234 3.42773 3.39453L 2.11523 3.39453ZM 9.87305 11L 8.78906 11L 8.78906 4.66016L 9.87305 4.66016L 9.87305 11ZM 8.70117 2.97852C 8.70117 2.80273 8.75391 2.6543 8.85938 2.5332C 8.96875 2.41211 9.12891 2.35156 9.33984 2.35156C 9.55078 2.35156 9.71094 2.41211 9.82031 2.5332C 9.92969 2.6543 9.98438 2.80273 9.98438 2.97852C 9.98438 3.1543 9.92969 3.30078 9.82031 3.41797C 9.71094 3.53516 9.55078 3.59375 9.33984 3.59375C 9.12891 3.59375 8.96875 3.53516 8.85938 3.41797C 8.75391 3.30078 8.70117 3.1543 8.70117 2.97852ZM 13.7051 9.5293L 15.2754 4.66016L 16.3828 4.66016L 14.1094 11L 13.2832 11L 10.9863 4.66016L 12.0938 4.66016L 13.7051 9.5293Z" transform="translate(414 302) scale(2)" fill="white"/>
</g>
<g id="Arrow 2_4">
<path d="M 44.9112 0.707107C 45.3017 0.316582 45.3017 -0.316582 44.9112 -0.707107L 38.5472 -7.07107C 38.1567 -7.46159 37.5235 -7.46159 37.133 -7.07107C 36.7425 -6.68054 36.7425 -6.04738 37.133 -5.65685L 42.7899 0L 37.133 5.65685C 36.7425 6.04738 36.7425 6.68054 37.133 7.07107C 37.5235 7.46159 38.1567 7.46159 38.5472 7.07107L 44.9112 0.707107ZM 0 1L 44.2041 1L 44.2041 -1L 0 -1L 0 1Z" transform="matrix(1.22161 1.58356 -1.58356 1.22161 460 350)" fill="black"/>
</g>
</g>
<g id="Group_9">
<g id="Ellipse_7" filter="url(#filter6_d)">
<circle cx="24" cy="24" r="24" transform="translate(244 412) scale(2)" fill="#DD0031"/>
</g>
<g id="H2">
<path d="M 7.54688 11L 6.41602 11L 6.41602 7.05664L 2.11523 7.05664L 2.11523 11L 0.990234 11L 0.990234 2.46875L 2.11523 2.46875L 2.11523 6.13672L 6.41602 6.13672L 6.41602 2.46875L 7.54688 2.46875L 7.54688 11ZM 14.8535 11L 9.26367 11L 9.26367 10.2207L 12.2168 6.93945C 12.6543 6.44336 12.9551 6.04102 13.1191 5.73242C 13.2871 5.41992 13.3711 5.09766 13.3711 4.76562C 13.3711 4.32031 13.2363 3.95508 12.9668 3.66992C 12.6973 3.38477 12.3379 3.24219 11.8887 3.24219C 11.3496 3.24219 10.9297 3.39648 10.6289 3.70508C 10.332 4.00977 10.1836 4.43555 10.1836 4.98242L 9.09961 4.98242C 9.09961 4.19727 9.35156 3.5625 9.85547 3.07812C 10.3633 2.59375 11.041 2.35156 11.8887 2.35156C 12.6816 2.35156 13.3086 2.56055 13.7695 2.97852C 14.2305 3.39258 14.4609 3.94531 14.4609 4.63672C 14.4609 5.47656 13.9258 6.47656 12.8555 7.63672L 10.5703 10.1152L 14.8535 10.1152L 14.8535 11Z" transform="translate(276 448) scale(2)" fill="white"/>
</g>
</g>
<g id="Ellipse_8" filter="url(#filter7_d)">
<circle cx="24" cy="24" r="24" transform="translate(32 404) scale(2)" fill="#DD0031"/>
</g>
</g>
<g id="Group_10">
<g id="Group_11">
<g id="Ellipse_9" filter="url(#filter8_d)">
<circle cx="24" cy="24" r="24" transform="translate(940 104) scale(2)" fill="#DD0031"/>
</g>
<g id="Div_5">
<path d="M 0.990234 11L 0.990234 2.46875L 3.39844 2.46875C 4.14062 2.46875 4.79688 2.63281 5.36719 2.96094C 5.9375 3.28906 6.37695 3.75586 6.68555 4.36133C 6.99805 4.9668 7.15625 5.66211 7.16016 6.44727L 7.16016 6.99219C 7.16016 7.79688 7.00391 8.50195 6.69141 9.10742C 6.38281 9.71289 5.93945 10.1777 5.36133 10.502C 4.78711 10.8262 4.11719 10.9922 3.35156 11L 0.990234 11ZM 2.11523 3.39453L 2.11523 10.0801L 3.29883 10.0801C 4.16602 10.0801 4.83984 9.81055 5.32031 9.27148C 5.80469 8.73242 6.04688 7.96484 6.04688 6.96875L 6.04688 6.4707C 6.04688 5.50195 5.81836 4.75 5.36133 4.21484C 4.9082 3.67578 4.26367 3.40234 3.42773 3.39453L 2.11523 3.39453ZM 9.87305 11L 8.78906 11L 8.78906 4.66016L 9.87305 4.66016L 9.87305 11ZM 8.70117 2.97852C 8.70117 2.80273 8.75391 2.6543 8.85938 2.5332C 8.96875 2.41211 9.12891 2.35156 9.33984 2.35156C 9.55078 2.35156 9.71094 2.41211 9.82031 2.5332C 9.92969 2.6543 9.98438 2.80273 9.98438 2.97852C 9.98438 3.1543 9.92969 3.30078 9.82031 3.41797C 9.71094 3.53516 9.55078 3.59375 9.33984 3.59375C 9.12891 3.59375 8.96875 3.53516 8.85938 3.41797C 8.75391 3.30078 8.70117 3.1543 8.70117 2.97852ZM 13.7051 9.5293L 15.2754 4.66016L 16.3828 4.66016L 14.1094 11L 13.2832 11L 10.9863 4.66016L 12.0938 4.66016L 13.7051 9.5293Z" transform="translate(972 140) scale(2)" fill="white"/>
</g>
<g id="Arrow 2_5">
<path d="M 44.9112 0.707107C 45.3017 0.316582 45.3017 -0.316582 44.9112 -0.707107L 38.5472 -7.07107C 38.1567 -7.46159 37.5235 -7.46159 37.133 -7.07107C 36.7425 -6.68054 36.7425 -6.04738 37.133 -5.65685L 42.7899 0L 37.133 5.65685C 36.7425 6.04738 36.7425 6.68054 37.133 7.07107C 37.5235 7.46159 38.1567 7.46159 38.5472 7.07107L 44.9112 0.707107ZM 0 1L 44.2041 1L 44.2041 -1L 0 -1L 0 1Z" transform="matrix(1.22161 1.58356 -1.58356 1.22161 1018 188)" fill="black"/>
</g>
<g id="Arrow 2.2_4">
<path d="M 44.9112 0.707107C 45.3017 0.316582 45.3017 -0.316582 44.9112 -0.707107L 38.5472 -7.07107C 38.1567 -7.46159 37.5235 -7.46159 37.133 -7.07107C 36.7425 -6.68054 36.7425 -6.04738 37.133 -5.65685L 42.7899 0L 37.133 5.65685C 36.7425 6.04738 36.7425 6.68054 37.133 7.07107C 37.5235 7.46159 38.1567 7.46159 38.5472 7.07107L 44.9112 0.707107ZM 0 1L 44.2041 1L 44.2041 -1L 0 -1L 0 1Z" transform="matrix(-1.41421 1.41421 -1.41421 -1.41421 956.514 188)" fill="black"/>
</g>
</g>
<g id="Group_12">
<g id="Ellipse_10" filter="url(#filter9_d)">
<circle cx="24" cy="24" r="24" transform="translate(818 242) scale(2)" fill="#56CCF2"/>
</g>
<g id="Div_6">
<path d="M 0.990234 11L 0.990234 2.46875L 3.39844 2.46875C 4.14062 2.46875 4.79688 2.63281 5.36719 2.96094C 5.9375 3.28906 6.37695 3.75586 6.68555 4.36133C 6.99805 4.9668 7.15625 5.66211 7.16016 6.44727L 7.16016 6.99219C 7.16016 7.79688 7.00391 8.50195 6.69141 9.10742C 6.38281 9.71289 5.93945 10.1777 5.36133 10.502C 4.78711 10.8262 4.11719 10.9922 3.35156 11L 0.990234 11ZM 2.11523 3.39453L 2.11523 10.0801L 3.29883 10.0801C 4.16602 10.0801 4.83984 9.81055 5.32031 9.27148C 5.80469 8.73242 6.04688 7.96484 6.04688 6.96875L 6.04688 6.4707C 6.04688 5.50195 5.81836 4.75 5.36133 4.21484C 4.9082 3.67578 4.26367 3.40234 3.42773 3.39453L 2.11523 3.39453ZM 9.87305 11L 8.78906 11L 8.78906 4.66016L 9.87305 4.66016L 9.87305 11ZM 8.70117 2.97852C 8.70117 2.80273 8.75391 2.6543 8.85938 2.5332C 8.96875 2.41211 9.12891 2.35156 9.33984 2.35156C 9.55078 2.35156 9.71094 2.41211 9.82031 2.5332C 9.92969 2.6543 9.98438 2.80273 9.98438 2.97852C 9.98438 3.1543 9.92969 3.30078 9.82031 3.41797C 9.71094 3.53516 9.55078 3.59375 9.33984 3.59375C 9.12891 3.59375 8.96875 3.53516 8.85938 3.41797C 8.75391 3.30078 8.70117 3.1543 8.70117 2.97852ZM 13.7051 9.5293L 15.2754 4.66016L 16.3828 4.66016L 14.1094 11L 13.2832 11L 10.9863 4.66016L 12.0938 4.66016L 13.7051 9.5293Z" transform="translate(850 278) scale(2)" fill="white"/>
</g>
<g id="Arrow 2_6">
<path d="M 44.9112 0.707107C 45.3017 0.316582 45.3017 -0.316582 44.9112 -0.707107L 38.5472 -7.07107C 38.1567 -7.46159 37.5235 -7.46159 37.133 -7.07107C 36.7425 -6.68054 36.7425 -6.04738 37.133 -5.65685L 42.7899 0L 37.133 5.65685C 36.7425 6.04738 36.7425 6.68054 37.133 7.07107C 37.5235 7.46159 38.1567 7.46159 38.5472 7.07107L 44.9112 0.707107ZM 0 1L 44.2041 1L 44.2041 -1L 0 -1L 0 1Z" transform="matrix(1.22161 1.58356 -1.58356 1.22161 896 326)" fill="black"/>
</g>
<g id="Arrow 2.2_5">
<path d="M 44.9112 0.707107C 45.3017 0.316582 45.3017 -0.316582 44.9112 -0.707107L 38.5472 -7.07107C 38.1567 -7.46159 37.5235 -7.46159 37.133 -7.07107C 36.7425 -6.68054 36.7425 -6.04738 37.133 -5.65685L 42.7899 0L 37.133 5.65685C 36.7425 6.04738 36.7425 6.68054 37.133 7.07107C 37.5235 7.46159 38.1567 7.46159 38.5472 7.07107L 44.9112 0.707107ZM 0 1L 44.2041 1L 44.2041 -1L 0 -1L 0 1Z" transform="matrix(-1.41421 1.41421 -1.41421 -1.41421 834.514 326)" fill="black"/>
</g>
</g>
<g id="Group_13">
<g id="Ellipse_11" filter="url(#filter10_d)">
<circle cx="24" cy="24" r="24" transform="translate(1146 404) scale(2)" fill="#DD0031"/>
</g>
<g id="Div_7">
<path d="M 0.990234 11L 0.990234 2.46875L 3.39844 2.46875C 4.14062 2.46875 4.79688 2.63281 5.36719 2.96094C 5.9375 3.28906 6.37695 3.75586 6.68555 4.36133C 6.99805 4.9668 7.15625 5.66211 7.16016 6.44727L 7.16016 6.99219C 7.16016 7.79688 7.00391 8.50195 6.69141 9.10742C 6.38281 9.71289 5.93945 10.1777 5.36133 10.502C 4.78711 10.8262 4.11719 10.9922 3.35156 11L 0.990234 11ZM 2.11523 3.39453L 2.11523 10.0801L 3.29883 10.0801C 4.16602 10.0801 4.83984 9.81055 5.32031 9.27148C 5.80469 8.73242 6.04688 7.96484 6.04688 6.96875L 6.04688 6.4707C 6.04688 5.50195 5.81836 4.75 5.36133 4.21484C 4.9082 3.67578 4.26367 3.40234 3.42773 3.39453L 2.11523 3.39453ZM 9.87305 11L 8.78906 11L 8.78906 4.66016L 9.87305 4.66016L 9.87305 11ZM 8.70117 2.97852C 8.70117 2.80273 8.75391 2.6543 8.85938 2.5332C 8.96875 2.41211 9.12891 2.35156 9.33984 2.35156C 9.55078 2.35156 9.71094 2.41211 9.82031 2.5332C 9.92969 2.6543 9.98438 2.80273 9.98438 2.97852C 9.98438 3.1543 9.92969 3.30078 9.82031 3.41797C 9.71094 3.53516 9.55078 3.59375 9.33984 3.59375C 9.12891 3.59375 8.96875 3.53516 8.85938 3.41797C 8.75391 3.30078 8.70117 3.1543 8.70117 2.97852ZM 13.7051 9.5293L 15.2754 4.66016L 16.3828 4.66016L 14.1094 11L 13.2832 11L 10.9863 4.66016L 12.0938 4.66016L 13.7051 9.5293Z" transform="translate(1178 440) scale(2)" fill="white"/>
</g>
<g id="Arrow 2_7">
<path d="M 44.9112 0.707107C 45.3017 0.316582 45.3017 -0.316582 44.9112 -0.707107L 38.5472 -7.07107C 38.1567 -7.46159 37.5235 -7.46159 37.133 -7.07107C 36.7425 -6.68054 36.7425 -6.04738 37.133 -5.65685L 42.7899 0L 37.133 5.65685C 36.7425 6.04738 36.7425 6.68054 37.133 7.07107C 37.5235 7.46159 38.1567 7.46159 38.5472 7.07107L 44.9112 0.707107ZM 0 1L 44.2041 1L 44.2041 -1L 0 -1L 0 1Z" transform="matrix(1.22161 1.58356 -1.58356 1.22161 1224 488)" fill="black"/>
</g>
<g id="Arrow 2.2_6">
<path d="M 44.9112 0.707107C 45.3017 0.316582 45.3017 -0.316582 44.9112 -0.707107L 38.5472 -7.07107C 38.1567 -7.46159 37.5235 -7.46159 37.133 -7.07107C 36.7425 -6.68054 36.7425 -6.04738 37.133 -5.65685L 42.7899 0L 37.133 5.65685C 36.7425 6.04738 36.7425 6.68054 37.133 7.07107C 37.5235 7.46159 38.1567 7.46159 38.5472 7.07107L 44.9112 0.707107ZM 0 1L 44.2041 1L 44.2041 -1L 0 -1L 0 1Z" transform="matrix(-1.41421 1.41421 -1.41421 -1.41421 1162.51 488)" fill="black"/>
</g>
</g>
<g id="Group_14">
<g id="Ellipse_12" filter="url(#filter11_d)">
<circle cx="24" cy="24" r="24" transform="translate(1258 550) scale(2)" fill="#DD0031"/>
</g>
<g id="p_2">
<path d="M 6.17578 7.90039C 6.17578 8.86523 5.95508 9.64258 5.51367 10.2324C 5.07227 10.8223 4.47461 11.1172 3.7207 11.1172C 2.95117 11.1172 2.3457 10.873 1.9043 10.3848L 1.9043 13.4375L 0.820312 13.4375L 0.820312 4.66016L 1.81055 4.66016L 1.86328 5.36328C 2.30469 4.81641 2.91797 4.54297 3.70312 4.54297C 4.46484 4.54297 5.06641 4.83008 5.50781 5.4043C 5.95312 5.97852 6.17578 6.77734 6.17578 7.80078L 6.17578 7.90039ZM 5.0918 7.77734C 5.0918 7.0625 4.93945 6.49805 4.63477 6.08398C 4.33008 5.66992 3.91211 5.46289 3.38086 5.46289C 2.72461 5.46289 2.23242 5.75391 1.9043 6.33594L 1.9043 9.36523C 2.22852 9.94336 2.72461 10.2324 3.39258 10.2324C 3.91211 10.2324 4.32422 10.0273 4.62891 9.61719C 4.9375 9.20312 5.0918 8.58984 5.0918 7.77734Z" transform="translate(1290 586) scale(2)" fill="white"/>
</g>
</g>
<g id="Group_15">
<g id="Ellipse_13" filter="url(#filter12_d)">
<circle cx="24" cy="24" r="24" transform="translate(1042 550) scale(2)" fill="#DD0031"/>
</g>
<g id="P_2">
<path d="M 2.11523 7.66016L 2.11523 11L 0.990234 11L 0.990234 2.46875L 4.13672 2.46875C 5.07031 2.46875 5.80078 2.70703 6.32812 3.18359C 6.85938 3.66016 7.125 4.29102 7.125 5.07617C 7.125 5.9043 6.86523 6.54297 6.3457 6.99219C 5.83008 7.4375 5.08984 7.66016 4.125 7.66016L 2.11523 7.66016ZM 2.11523 6.74023L 4.13672 6.74023C 4.73828 6.74023 5.19922 6.59961 5.51953 6.31836C 5.83984 6.0332 6 5.62305 6 5.08789C 6 4.58008 5.83984 4.17383 5.51953 3.86914C 5.19922 3.56445 4.75977 3.40625 4.20117 3.39453L 2.11523 3.39453L 2.11523 6.74023Z" transform="translate(1074 586) scale(2)" fill="white"/>
</g>
</g>
<g id="Group_16">
<g id="Ellipse_14" filter="url(#filter13_d)">
<circle cx="24" cy="24" r="24" transform="translate(1052 250) scale(2)" fill="#DD0031"/>
</g>
<g id="Div_8">
<path d="M 0.990234 11L 0.990234 2.46875L 3.39844 2.46875C 4.14062 2.46875 4.79688 2.63281 5.36719 2.96094C 5.9375 3.28906 6.37695 3.75586 6.68555 4.36133C 6.99805 4.9668 7.15625 5.66211 7.16016 6.44727L 7.16016 6.99219C 7.16016 7.79688 7.00391 8.50195 6.69141 9.10742C 6.38281 9.71289 5.93945 10.1777 5.36133 10.502C 4.78711 10.8262 4.11719 10.9922 3.35156 11L 0.990234 11ZM 2.11523 3.39453L 2.11523 10.0801L 3.29883 10.0801C 4.16602 10.0801 4.83984 9.81055 5.32031 9.27148C 5.80469 8.73242 6.04688 7.96484 6.04688 6.96875L 6.04688 6.4707C 6.04688 5.50195 5.81836 4.75 5.36133 4.21484C 4.9082 3.67578 4.26367 3.40234 3.42773 3.39453L 2.11523 3.39453ZM 9.87305 11L 8.78906 11L 8.78906 4.66016L 9.87305 4.66016L 9.87305 11ZM 8.70117 2.97852C 8.70117 2.80273 8.75391 2.6543 8.85938 2.5332C 8.96875 2.41211 9.12891 2.35156 9.33984 2.35156C 9.55078 2.35156 9.71094 2.41211 9.82031 2.5332C 9.92969 2.6543 9.98438 2.80273 9.98438 2.97852C 9.98438 3.1543 9.92969 3.30078 9.82031 3.41797C 9.71094 3.53516 9.55078 3.59375 9.33984 3.59375C 9.12891 3.59375 8.96875 3.53516 8.85938 3.41797C 8.75391 3.30078 8.70117 3.1543 8.70117 2.97852ZM 13.7051 9.5293L 15.2754 4.66016L 16.3828 4.66016L 14.1094 11L 13.2832 11L 10.9863 4.66016L 12.0938 4.66016L 13.7051 9.5293Z" transform="translate(1084 286) scale(2)" fill="white"/>
</g>
<g id="Arrow 2_8">
<path d="M 44.9112 0.707107C 45.3017 0.316582 45.3017 -0.316582 44.9112 -0.707107L 38.5472 -7.07107C 38.1567 -7.46159 37.5235 -7.46159 37.133 -7.07107C 36.7425 -6.68054 36.7425 -6.04738 37.133 -5.65685L 42.7899 0L 37.133 5.65685C 36.7425 6.04738 36.7425 6.68054 37.133 7.07107C 37.5235 7.46159 38.1567 7.46159 38.5472 7.07107L 44.9112 0.707107ZM 0 1L 44.2041 1L 44.2041 -1L 0 -1L 0 1Z" transform="matrix(1.22161 1.58356 -1.58356 1.22161 1130 334)" fill="black"/>
</g>
</g>
<g id="Group_17">
<g id="Ellipse_15" filter="url(#filter14_d)">
<circle cx="24" cy="24" r="24" transform="translate(914 396) scale(2)" fill="#56CCF2"/>
</g>
<g id="H2_2">
<path d="M 7.54688 11L 6.41602 11L 6.41602 7.05664L 2.11523 7.05664L 2.11523 11L 0.990234 11L 0.990234 2.46875L 2.11523 2.46875L 2.11523 6.13672L 6.41602 6.13672L 6.41602 2.46875L 7.54688 2.46875L 7.54688 11ZM 14.8535 11L 9.26367 11L 9.26367 10.2207L 12.2168 6.93945C 12.6543 6.44336 12.9551 6.04102 13.1191 5.73242C 13.2871 5.41992 13.3711 5.09766 13.3711 4.76562C 13.3711 4.32031 13.2363 3.95508 12.9668 3.66992C 12.6973 3.38477 12.3379 3.24219 11.8887 3.24219C 11.3496 3.24219 10.9297 3.39648 10.6289 3.70508C 10.332 4.00977 10.1836 4.43555 10.1836 4.98242L 9.09961 4.98242C 9.09961 4.19727 9.35156 3.5625 9.85547 3.07812C 10.3633 2.59375 11.041 2.35156 11.8887 2.35156C 12.6816 2.35156 13.3086 2.56055 13.7695 2.97852C 14.2305 3.39258 14.4609 3.94531 14.4609 4.63672C 14.4609 5.47656 13.9258 6.47656 12.8555 7.63672L 10.5703 10.1152L 14.8535 10.1152L 14.8535 11Z" transform="translate(946 432) scale(2)" fill="white"/>
</g>
</g>
<g id="Ellipse_16" filter="url(#filter15_d)">
<circle cx="24" cy="24" r="24" transform="translate(702 388) scale(2)" fill="#DD0031"/>
</g>
</g>
<g id="Video">
<path d="M 3.81445 9.50586L 6.25195 2.46875L 7.48242 2.46875L 4.31836 11L 3.32227 11L 0.164062 2.46875L 1.38867 2.46875L 3.81445 9.50586ZM 9.63867 11L 8.55469 11L 8.55469 4.66016L 9.63867 4.66016L 9.63867 11ZM 8.4668 2.97852C 8.4668 2.80273 8.51953 2.6543 8.625 2.5332C 8.73438 2.41211 8.89453 2.35156 9.10547 2.35156C 9.31641 2.35156 9.47656 2.41211 9.58594 2.5332C 9.69531 2.6543 9.75 2.80273 9.75 2.97852C 9.75 3.1543 9.69531 3.30078 9.58594 3.41797C 9.47656 3.53516 9.31641 3.59375 9.10547 3.59375C 8.89453 3.59375 8.73438 3.53516 8.625 3.41797C 8.51953 3.30078 8.4668 3.1543 8.4668 2.97852ZM 11.1152 7.77734C 11.1152 6.80469 11.3457 6.02344 11.8066 5.43359C 12.2676 4.83984 12.8711 4.54297 13.6172 4.54297C 14.3594 4.54297 14.9473 4.79688 15.3809 5.30469L 15.3809 2L 16.4648 2L 16.4648 11L 15.4688 11L 15.416 10.3203C 14.9824 10.8516 14.3789 11.1172 13.6055 11.1172C 12.8711 11.1172 12.2715 10.8164 11.8066 10.2148C 11.3457 9.61328 11.1152 8.82812 11.1152 7.85938L 11.1152 7.77734ZM 12.1992 7.90039C 12.1992 8.61914 12.3477 9.18164 12.6445 9.58789C 12.9414 9.99414 13.3516 10.1973 13.875 10.1973C 14.5625 10.1973 15.0645 9.88867 15.3809 9.27148L 15.3809 6.35938C 15.0566 5.76172 14.5586 5.46289 13.8867 5.46289C 13.3555 5.46289 12.9414 5.66797 12.6445 6.07812C 12.3477 6.48828 12.1992 7.0957 12.1992 7.90039ZM 20.7832 11.1172C 19.9238 11.1172 19.2246 10.8359 18.6855 10.2734C 18.1465 9.70703 17.877 8.95117 17.877 8.00586L 17.877 7.80664C 17.877 7.17773 17.9961 6.61719 18.2344 6.125C 18.4766 5.62891 18.8125 5.24219 19.2422 4.96484C 19.6758 4.68359 20.1445 4.54297 20.6484 4.54297C 21.4727 4.54297 22.1133 4.81445 22.5703 5.35742C 23.0273 5.90039 23.2559 6.67773 23.2559 7.68945L 23.2559 8.14062L 18.9609 8.14062C 18.9766 8.76562 19.1582 9.27148 19.5059 9.6582C 19.8574 10.041 20.3027 10.2324 20.8418 10.2324C 21.2246 10.2324 21.5488 10.1543 21.8145 9.99805C 22.0801 9.8418 22.3125 9.63477 22.5117 9.37695L 23.1738 9.89258C 22.6426 10.709 21.8457 11.1172 20.7832 11.1172ZM 20.6484 5.43359C 20.2109 5.43359 19.8438 5.59375 19.5469 5.91406C 19.25 6.23047 19.0664 6.67578 18.9961 7.25L 22.1719 7.25L 22.1719 7.16797C 22.1406 6.61719 21.9922 6.19141 21.7266 5.89062C 21.4609 5.58594 21.1016 5.43359 20.6484 5.43359ZM 24.2285 7.77148C 24.2285 7.15039 24.3496 6.5918 24.5918 6.0957C 24.8379 5.59961 25.1777 5.2168 25.6113 4.94727C 26.0488 4.67773 26.5469 4.54297 27.1055 4.54297C 27.9688 4.54297 28.666 4.8418 29.1973 5.43945C 29.7324 6.03711 30 6.83203 30 7.82422L 30 7.90039C 30 8.51758 29.8809 9.07227 29.6426 9.56445C 29.4082 10.0527 29.0703 10.4336 28.6289 10.707C 28.1914 10.9805 27.6875 11.1172 27.1172 11.1172C 26.2578 11.1172 25.5605 10.8184 25.0254 10.2207C 24.4941 9.62305 24.2285 8.83203 24.2285 7.84766L 24.2285 7.77148ZM 25.3184 7.90039C 25.3184 8.60352 25.4805 9.16797 25.8047 9.59375C 26.1328 10.0195 26.5703 10.2324 27.1172 10.2324C 27.668 10.2324 28.1055 10.0176 28.4297 9.58789C 28.7539 9.1543 28.916 8.54883 28.916 7.77148C 28.916 7.07617 28.75 6.51367 28.418 6.08398C 28.0898 5.65039 27.6523 5.43359 27.1055 5.43359C 26.5703 5.43359 26.1387 5.64648 25.8105 6.07227C 25.4824 6.49805 25.3184 7.10742 25.3184 7.90039Z" transform="translate(48 440) scale(2)" fill="white"/>
</g>
</g>
</g>
</g>
<defs>
<filter id="filter0_d" x="216" y="82" width="204" height="204" filterUnits="userSpaceOnUse" color-interpolation-filters="sRGB">
<feFlood flood-opacity="0" result="BackgroundImageFix"/>
<feColorMatrix in="SourceAlpha" type="matrix" values="0 0 0 0 0 0 0 0 0 0 0 0 0 0 0 0 0 0 255 0"/>
<feOffset dy="8"/>
<feGaussianBlur stdDeviation="13.5"/>
<feColorMatrix type="matrix" values="0 0 0 0 1 0 0 0 0 0.318777 0 0 0 0 0.318777 0 0 0 0.7 0"/>
<feBlend mode="normal" in2="BackgroundImageFix" result="effect1_dropShadow"/>
<feBlend mode="normal" in="SourceGraphic" in2="effect1_dropShadow" result="shape"/>
</filter>
<filter id="filter1_d" x="94" y="220" width="204" height="204" filterUnits="userSpaceOnUse" color-interpolation-filters="sRGB">
<feFlood flood-opacity="0" result="BackgroundImageFix"/>
<feColorMatrix in="SourceAlpha" type="matrix" values="0 0 0 0 0 0 0 0 0 0 0 0 0 0 0 0 0 0 255 0"/>
<feOffset dy="8"/>
<feGaussianBlur stdDeviation="13.5"/>
<feColorMatrix type="matrix" values="0 0 0 0 1 0 0 0 0 0.318777 0 0 0 0 0.318777 0 0 0 0.7 0"/>
<feBlend mode="normal" in2="BackgroundImageFix" result="effect1_dropShadow"/>
<feBlend mode="normal" in="SourceGraphic" in2="effect1_dropShadow" result="shape"/>
</filter>
<filter id="filter2_d" x="422" y="382" width="204" height="204" filterUnits="userSpaceOnUse" color-interpolation-filters="sRGB">
<feFlood flood-opacity="0" result="BackgroundImageFix"/>
<feColorMatrix in="SourceAlpha" type="matrix" values="0 0 0 0 0 0 0 0 0 0 0 0 0 0 0 0 0 0 255 0"/>
<feOffset dy="8"/>
<feGaussianBlur stdDeviation="13.5"/>
<feColorMatrix type="matrix" values="0 0 0 0 1 0 0 0 0 0.318777 0 0 0 0 0.318777 0 0 0 0.7 0"/>
<feBlend mode="normal" in2="BackgroundImageFix" result="effect1_dropShadow"/>
<feBlend mode="normal" in="SourceGraphic" in2="effect1_dropShadow" result="shape"/>
</filter>
<filter id="filter3_d" x="534" y="528" width="204" height="204" filterUnits="userSpaceOnUse" color-interpolation-filters="sRGB">
<feFlood flood-opacity="0" result="BackgroundImageFix"/>
<feColorMatrix in="SourceAlpha" type="matrix" values="0 0 0 0 0 0 0 0 0 0 0 0 0 0 0 0 0 0 255 0"/>
<feOffset dy="8"/>
<feGaussianBlur stdDeviation="13.5"/>
<feColorMatrix type="matrix" values="0 0 0 0 1 0 0 0 0 0.318777 0 0 0 0 0.318777 0 0 0 0.7 0"/>
<feBlend mode="normal" in2="BackgroundImageFix" result="effect1_dropShadow"/>
<feBlend mode="normal" in="SourceGraphic" in2="effect1_dropShadow" result="shape"/>
</filter>
<filter id="filter4_d" x="318" y="528" width="204" height="204" filterUnits="userSpaceOnUse" color-interpolation-filters="sRGB">
<feFlood flood-opacity="0" result="BackgroundImageFix"/>
<feColorMatrix in="SourceAlpha" type="matrix" values="0 0 0 0 0 0 0 0 0 0 0 0 0 0 0 0 0 0 255 0"/>
<feOffset dy="8"/>
<feGaussianBlur stdDeviation="13.5"/>
<feColorMatrix type="matrix" values="0 0 0 0 1 0 0 0 0 0.318777 0 0 0 0 0.318777 0 0 0 0.7 0"/>
<feBlend mode="normal" in2="BackgroundImageFix" result="effect1_dropShadow"/>
<feBlend mode="normal" in="SourceGraphic" in2="effect1_dropShadow" result="shape"/>
</filter>
<filter id="filter5_d" x="328" y="228" width="204" height="204" filterUnits="userSpaceOnUse" color-interpolation-filters="sRGB">
<feFlood flood-opacity="0" result="BackgroundImageFix"/>
<feColorMatrix in="SourceAlpha" type="matrix" values="0 0 0 0 0 0 0 0 0 0 0 0 0 0 0 0 0 0 255 0"/>
<feOffset dy="8"/>
<feGaussianBlur stdDeviation="13.5"/>
<feColorMatrix type="matrix" values="0 0 0 0 1 0 0 0 0 0.318777 0 0 0 0 0.318777 0 0 0 0.7 0"/>
<feBlend mode="normal" in2="BackgroundImageFix" result="effect1_dropShadow"/>
<feBlend mode="normal" in="SourceGraphic" in2="effect1_dropShadow" result="shape"/>
</filter>
<filter id="filter6_d" x="190" y="374" width="204" height="204" filterUnits="userSpaceOnUse" color-interpolation-filters="sRGB">
<feFlood flood-opacity="0" result="BackgroundImageFix"/>
<feColorMatrix in="SourceAlpha" type="matrix" values="0 0 0 0 0 0 0 0 0 0 0 0 0 0 0 0 0 0 255 0"/>
<feOffset dy="8"/>
<feGaussianBlur stdDeviation="13.5"/>
<feColorMatrix type="matrix" values="0 0 0 0 1 0 0 0 0 0.318777 0 0 0 0 0.318777 0 0 0 0.7 0"/>
<feBlend mode="normal" in2="BackgroundImageFix" result="effect1_dropShadow"/>
<feBlend mode="normal" in="SourceGraphic" in2="effect1_dropShadow" result="shape"/>
</filter>
<filter id="filter7_d" x="-22" y="366" width="204" height="204" filterUnits="userSpaceOnUse" color-interpolation-filters="sRGB">
<feFlood flood-opacity="0" result="BackgroundImageFix"/>
<feColorMatrix in="SourceAlpha" type="matrix" values="0 0 0 0 0 0 0 0 0 0 0 0 0 0 0 0 0 0 255 0"/>
<feOffset dy="8"/>
<feGaussianBlur stdDeviation="13.5"/>
<feColorMatrix type="matrix" values="0 0 0 0 1 0 0 0 0 0.318777 0 0 0 0 0.318777 0 0 0 0.7 0"/>
<feBlend mode="normal" in2="BackgroundImageFix" result="effect1_dropShadow"/>
<feBlend mode="normal" in="SourceGraphic" in2="effect1_dropShadow" result="shape"/>
</filter>
<filter id="filter8_d" x="886" y="66" width="204" height="204" filterUnits="userSpaceOnUse" color-interpolation-filters="sRGB">
<feFlood flood-opacity="0" result="BackgroundImageFix"/>
<feColorMatrix in="SourceAlpha" type="matrix" values="0 0 0 0 0 0 0 0 0 0 0 0 0 0 0 0 0 0 255 0"/>
<feOffset dy="8"/>
<feGaussianBlur stdDeviation="13.5"/>
<feColorMatrix type="matrix" values="0 0 0 0 1 0 0 0 0 0.318777 0 0 0 0 0.318777 0 0 0 0.7 0"/>
<feBlend mode="normal" in2="BackgroundImageFix" result="effect1_dropShadow"/>
<feBlend mode="normal" in="SourceGraphic" in2="effect1_dropShadow" result="shape"/>
</filter>
<filter id="filter9_d" x="764" y="204" width="204" height="204" filterUnits="userSpaceOnUse" color-interpolation-filters="sRGB">
<feFlood flood-opacity="0" result="BackgroundImageFix"/>
<feColorMatrix in="SourceAlpha" type="matrix" values="0 0 0 0 0 0 0 0 0 0 0 0 0 0 0 0 0 0 255 0"/>
<feOffset dy="8"/>
<feGaussianBlur stdDeviation="13.5"/>
<feColorMatrix type="matrix" values="0 0 0 0 0.337255 0 0 0 0 0.8 0 0 0 0 0.94902 0 0 0 1 0"/>
<feBlend mode="normal" in2="BackgroundImageFix" result="effect1_dropShadow"/>
<feBlend mode="normal" in="SourceGraphic" in2="effect1_dropShadow" result="shape"/>
</filter>
<filter id="filter10_d" x="1092" y="366" width="204" height="204" filterUnits="userSpaceOnUse" color-interpolation-filters="sRGB">
<feFlood flood-opacity="0" result="BackgroundImageFix"/>
<feColorMatrix in="SourceAlpha" type="matrix" values="0 0 0 0 0 0 0 0 0 0 0 0 0 0 0 0 0 0 255 0"/>
<feOffset dy="8"/>
<feGaussianBlur stdDeviation="13.5"/>
<feColorMatrix type="matrix" values="0 0 0 0 1 0 0 0 0 0.318777 0 0 0 0 0.318777 0 0 0 0.7 0"/>
<feBlend mode="normal" in2="BackgroundImageFix" result="effect1_dropShadow"/>
<feBlend mode="normal" in="SourceGraphic" in2="effect1_dropShadow" result="shape"/>
</filter>
<filter id="filter11_d" x="1204" y="512" width="204" height="204" filterUnits="userSpaceOnUse" color-interpolation-filters="sRGB">
<feFlood flood-opacity="0" result="BackgroundImageFix"/>
<feColorMatrix in="SourceAlpha" type="matrix" values="0 0 0 0 0 0 0 0 0 0 0 0 0 0 0 0 0 0 255 0"/>
<feOffset dy="8"/>
<feGaussianBlur stdDeviation="13.5"/>
<feColorMatrix type="matrix" values="0 0 0 0 1 0 0 0 0 0.318777 0 0 0 0 0.318777 0 0 0 0.7 0"/>
<feBlend mode="normal" in2="BackgroundImageFix" result="effect1_dropShadow"/>
<feBlend mode="normal" in="SourceGraphic" in2="effect1_dropShadow" result="shape"/>
</filter>
<filter id="filter12_d" x="988" y="512" width="204" height="204" filterUnits="userSpaceOnUse" color-interpolation-filters="sRGB">
<feFlood flood-opacity="0" result="BackgroundImageFix"/>
<feColorMatrix in="SourceAlpha" type="matrix" values="0 0 0 0 0 0 0 0 0 0 0 0 0 0 0 0 0 0 255 0"/>
<feOffset dy="8"/>
<feGaussianBlur stdDeviation="13.5"/>
<feColorMatrix type="matrix" values="0 0 0 0 1 0 0 0 0 0.318777 0 0 0 0 0.318777 0 0 0 0.7 0"/>
<feBlend mode="normal" in2="BackgroundImageFix" result="effect1_dropShadow"/>
<feBlend mode="normal" in="SourceGraphic" in2="effect1_dropShadow" result="shape"/>
</filter>
<filter id="filter13_d" x="998" y="212" width="204" height="204" filterUnits="userSpaceOnUse" color-interpolation-filters="sRGB">
<feFlood flood-opacity="0" result="BackgroundImageFix"/>
<feColorMatrix in="SourceAlpha" type="matrix" values="0 0 0 0 0 0 0 0 0 0 0 0 0 0 0 0 0 0 255 0"/>
<feOffset dy="8"/>
<feGaussianBlur stdDeviation="13.5"/>
<feColorMatrix type="matrix" values="0 0 0 0 1 0 0 0 0 0.318777 0 0 0 0 0.318777 0 0 0 0.7 0"/>
<feBlend mode="normal" in2="BackgroundImageFix" result="effect1_dropShadow"/>
<feBlend mode="normal" in="SourceGraphic" in2="effect1_dropShadow" result="shape"/>
</filter>
<filter id="filter14_d" x="860" y="358" width="204" height="204" filterUnits="userSpaceOnUse" color-interpolation-filters="sRGB">
<feFlood flood-opacity="0" result="BackgroundImageFix"/>
<feColorMatrix in="SourceAlpha" type="matrix" values="0 0 0 0 0 0 0 0 0 0 0 0 0 0 0 0 0 0 255 0"/>
<feOffset dy="8"/>
<feGaussianBlur stdDeviation="13.5"/>
<feColorMatrix type="matrix" values="0 0 0 0 0.337255 0 0 0 0 0.8 0 0 0 0 0.94902 0 0 0 0.7 0"/>
<feBlend mode="normal" in2="BackgroundImageFix" result="effect1_dropShadow"/>
<feBlend mode="normal" in="SourceGraphic" in2="effect1_dropShadow" result="shape"/>
</filter>
<filter id="filter15_d" x="648" y="350" width="204" height="204" filterUnits="userSpaceOnUse" color-interpolation-filters="sRGB">
<feFlood flood-opacity="0" result="BackgroundImageFix"/>
<feColorMatrix in="SourceAlpha" type="matrix" values="0 0 0 0 0 0 0 0 0 0 0 0 0 0 0 0 0 0 255 0"/>
<feOffset dy="8"/>
<feGaussianBlur stdDeviation="13.5"/>
<feColorMatrix type="matrix" values="0 0 0 0 1 0 0 0 0 0.318777 0 0 0 0 0.318777 0 0 0 0.7 0"/>
<feBlend mode="normal" in2="BackgroundImageFix" result="effect1_dropShadow"/>
<feBlend mode="normal" in="SourceGraphic" in2="effect1_dropShadow" result="shape"/>
</filter>

<clipPath id="clip0">
<rect width="691" height="437" fill="white" transform="scale(2)"/>
</clipPath>

</defs>
</svg>

